<?xml version="1.0" standalone="no"?>
<!DOCTYPE svg PUBLIC "-//W3C//DTD SVG 20010904//EN"
 "http://www.w3.org/TR/2001/REC-SVG-20010904/DTD/svg10.dtd">
<svg version="1.0" xmlns="http://www.w3.org/2000/svg"
 width="1896.000000pt" height="421.000000pt" viewBox="0 0 1896.000000 421.000000"
 preserveAspectRatio="xMidYMid meet">

<g transform="translate(0.000000,421.000000) scale(0.100000,-0.100000)"
fill="#fff" stroke="none">
<path d="M10 4136 l0 -65 58 -6 c324 -35 430 -74 482 -175 11 -22 28 -81 37
-132 17 -86 18 -209 18 -1668 0 -1703 2 -1640 -55 -1756 -53 -107 -166 -163
-380 -184 -174 -18 -160 -10 -160 -81 l0 -60 1148 4 c795 3 1176 8 1242 16
1023 126 1637 490 1970 1165 129 262 198 542 207 846 20 628 -178 1129 -591
1502 -148 134 -388 294 -529 354 -339 143 -620 219 -988 264 -271 33 -514 40
-1511 40 l-948 0 0 -64z m1925 -186 c383 -25 741 -115 979 -244 460 -251 781
-698 883 -1229 25 -130 27 -163 28 -387 0 -232 -2 -273 -26 -430 -10 -66 -61
-271 -81 -325 -6 -16 -22 -55 -36 -85 -13 -30 -28 -66 -34 -79 -17 -47 -111
-196 -157 -251 -25 -30 -57 -68 -71 -85 -53 -64 -246 -235 -265 -235 -3 0 -38
-21 -77 -46 -81 -53 -334 -167 -411 -184 -29 -7 -90 -23 -137 -36 -152 -43
-428 -74 -700 -80 -222 -5 -253 -4 -335 15 -93 21 -107 30 -163 111 -16 22
-17 138 -20 1694 -2 1189 1 1685 8 1723 13 62 48 108 99 129 74 31 269 40 516
24z"/>
<path d="M4942 3933 l3 -268 345 0 345 0 3 268 2 267 -350 0 -350 0 2 -267z"/>
<path d="M4940 1715 l0 -1715 350 0 350 0 0 1715 0 1715 -350 0 -350 0 0
-1715z"/>
<path d="M6190 2915 l0 -215 100 0 100 0 0 -39 c0 -154 -88 -316 -201 -366
l-38 -17 46 -69 c25 -38 50 -69 55 -69 31 0 124 64 190 130 136 135 156 208
165 598 l6 262 -212 0 -211 0 0 -215z"/>
<path d="M15947 3093 c-4 -3 -7 -690 -7 -1525 l0 -1518 195 0 195 0 0 1525 0
1525 -188 0 c-104 0 -192 -3 -195 -7z"/>
<path d="M12468 2912 l-188 -107 0 -272 0 -273 -145 0 -145 0 0 -145 0 -145
144 0 145 0 4 -787 c3 -575 7 -803 16 -842 34 -148 127 -244 286 -294 60 -19
93 -22 235 -22 100 0 192 5 233 14 l67 13 -5 32 c-3 17 -16 89 -28 160 l-23
129 -140 1 c-132 1 -143 3 -176 26 -78 53 -73 -4 -76 828 l-3 742 196 0 195 0
0 145 0 145 -195 0 -195 0 0 380 c0 209 -3 380 -7 380 -5 0 -92 -49 -195 -108z"/>
<path d="M8214 2299 c-50 -4 -127 -16 -172 -28 -165 -43 -268 -104 -394 -233
l-88 -90 0 156 0 156 -175 0 -175 0 0 -1105 0 -1105 194 0 195 0 4 703 c4 788
3 782 77 933 69 142 208 243 382 280 102 22 282 14 359 -15 126 -48 221 -147
254 -263 29 -103 34 -255 35 -950 l0 -688 196 0 195 0 -4 823 c-4 929 -2 897
-83 1065 -33 67 -61 109 -103 151 -152 152 -410 230 -697 210z"/>
<path d="M10563 2299 c-280 -17 -508 -91 -665 -214 -65 -51 -121 -123 -169
-216 -33 -65 -91 -230 -83 -238 4 -4 334 -50 365 -51 11 0 19 12 23 32 12 59
85 195 129 240 102 106 214 140 457 141 179 1 257 -12 358 -58 108 -50 167
-115 196 -216 19 -70 30 -187 21 -237 l-6 -39 -107 -26 c-149 -37 -299 -62
-572 -97 -350 -44 -432 -64 -595 -148 -159 -82 -279 -229 -321 -393 -9 -36
-17 -104 -17 -154 0 -171 51 -293 173 -415 90 -91 178 -140 318 -178 89 -24
113 -26 297 -26 188 -1 207 1 308 27 178 47 356 135 498 247 l53 42 17 -79 c9
-43 27 -104 39 -136 l21 -57 205 0 204 0 -20 39 c-30 61 -69 181 -81 257 -6
42 -14 339 -19 744 -8 739 -8 735 -71 866 -93 196 -334 321 -655 339 -54 3
-117 7 -139 9 -22 1 -95 -1 -162 -5z m612 -1514 c-23 -118 -66 -196 -156 -286
-136 -136 -327 -209 -551 -209 -259 0 -412 87 -463 265 -33 114 0 231 88 312
86 80 162 103 487 153 276 42 532 99 590 131 23 12 26 -257 5 -366z"/>
<path d="M14303 2298 c-201 -11 -350 -47 -508 -123 -192 -93 -302 -219 -372
-430 -35 -105 -36 -114 -11 -119 52 -12 351 -47 355 -42 3 3 16 34 28 70 63
181 157 271 332 317 105 29 372 32 477 6 158 -39 266 -118 307 -225 19 -47 22
-78 23 -181 l1 -124 -40 -14 c-78 -27 -334 -73 -603 -108 -390 -50 -499 -77
-652 -162 -83 -46 -205 -168 -248 -250 -121 -228 -84 -515 88 -691 99 -102
215 -163 374 -200 105 -24 412 -23 526 2 175 38 351 119 503 232 48 35 87 63
88 61 0 -1 9 -40 19 -87 10 -47 27 -106 39 -132 l20 -48 206 0 205 0 -14 22
c-8 13 -27 55 -41 93 -56 148 -56 148 -65 890 -9 762 -9 765 -75 903 -119 250
-455 369 -962 340z m634 -1310 c-3 -107 -12 -198 -22 -238 -40 -163 -166 -305
-340 -385 -105 -49 -185 -66 -330 -72 -112 -5 -143 -2 -214 16 -182 45 -291
167 -291 323 0 172 103 286 305 338 41 10 164 33 274 49 245 38 419 74 531
111 47 15 87 28 89 29 2 1 1 -77 -2 -171z"/>
<path d="M17791 2298 c-435 -33 -773 -294 -904 -698 -48 -146 -62 -258 -62
-475 1 -227 19 -338 79 -494 116 -299 353 -507 671 -590 247 -65 598 -50 813
35 209 82 385 242 484 439 42 83 79 195 65 195 -6 0 -86 9 -177 20 -228 28
-212 30 -240 -32 -71 -157 -170 -266 -294 -327 -103 -50 -173 -65 -311 -64
-193 0 -341 60 -469 188 -84 83 -128 154 -167 269 -29 83 -63 271 -53 287 3 5
394 9 870 9 l864 0 0 113 c0 264 -72 529 -191 704 -161 236 -449 399 -738 419
-42 2 -89 6 -106 7 -16 2 -77 0 -134 -5z m264 -313 c172 -36 336 -157 409
-303 36 -72 67 -178 81 -274 l6 -48 -650 0 -651 0 0 38 c0 62 37 187 77 265
133 253 430 384 728 322z"/>
</g>
</svg>
